<svg width="95" height="95" viewBox="0 0 95 95" fill="none" xmlns="http://www.w3.org/2000/svg">
<path d="M27.7083 47.5H67.2917M71.25 27.7083H71.2856M26.9167 71.25C26.9167 71.25 30.0833 78.6719 23.75 83.125M68.0833 71.25C68.0833 71.25 64.9167 78.6719 71.25 83.125M47.5 71.25V83.125M63.3333 11.875C72.5919 11.875 77.2192 11.875 80.5996 13.9967C82.363 15.1044 83.8539 16.5954 84.9617 18.3587C87.0833 21.7392 87.0833 26.3625 87.0833 35.625C87.0833 44.8875 87.0833 49.5108 84.9577 52.8913C83.8518 54.6523 82.3636 56.1419 80.6035 57.2494C77.2152 59.375 72.5879 59.375 63.3333 59.375H31.6667C22.4081 59.375 17.7808 59.375 14.4004 57.2494C12.6379 56.1439 11.147 54.6557 10.0383 52.8952C7.91666 49.5069 7.91666 44.8796 7.91666 35.625C7.91666 26.3704 7.91666 21.7392 10.0383 18.3587C11.146 16.5954 12.637 15.1044 14.4004 13.9967C17.7808 11.875 22.4042 11.875 31.6667 11.875H63.3333Z" stroke="#002A69" stroke-width="6" stroke-linecap="round" stroke-linejoin="round"/>
</svg>
