<svg width="29" height="27" viewBox="0 0 29 27" fill="none" xmlns="http://www.w3.org/2000/svg">
<path d="M27.6641 18.7045L21.5185 16.2229C21.2559 16.1175 20.9642 16.0953 20.6871 16.1596C20.41 16.2239 20.1626 16.3713 19.9821 16.5796L17.2604 19.7126C12.9891 17.8151 9.55164 14.5764 7.53775 10.552L10.863 7.98765C11.0845 7.81791 11.2412 7.58479 11.3096 7.32359C11.3779 7.06239 11.354 6.78733 11.2416 6.54006L8.60774 0.749694C8.48434 0.483134 8.26609 0.265498 7.99063 0.134312C7.71517 0.00312531 7.39975 -0.0333879 7.09877 0.031068L1.39213 1.27186C1.10195 1.33499 0.843057 1.48894 0.657695 1.70856C0.472334 1.92818 0.371454 2.20052 0.371521 2.48112C0.371521 15.7421 11.7793 26.4698 25.8319 26.4698C26.1298 26.4699 26.419 26.375 26.6522 26.2003C26.8854 26.0256 27.0489 25.7816 27.1159 25.5082L28.4328 20.1314C28.5008 19.8464 28.4612 19.5481 28.3209 19.2876C28.1806 19.0272 27.9483 18.821 27.6641 18.7045Z" fill="white"/>
</svg>
