<svg width="1728" height="288" viewBox="0 0 1728 288" fill="none" xmlns="http://www.w3.org/2000/svg">
<g opacity="0.7">
<rect y="91.494" width="1728" height="82.6219" fill="#FFF9DD"/>
<path d="M263.314 15.531C157.989 -6.83796 43.8857 6.2106 0 15.531V93.9894H1728V15.531C1689.93 27.2511 1583.58 43.6592 1462.69 15.531C1341.81 -12.5971 1205.86 3.81094 1153 15.531C1093.65 26.5555 945.238 41.9898 826.348 15.531C707.458 -10.9278 564.031 4.5065 507.179 15.531C469.777 24.8514 368.64 37.9 263.314 15.531Z" fill="#FFF9DD"/>
<rect y="125.912" width="1728" height="82.6219" fill="#FFF1B3"/>
<path d="M263.314 49.9493C157.989 27.5803 43.8857 40.6289 0 49.9493V128.408H1728V49.9493C1689.93 61.6693 1583.58 78.0774 1462.69 49.9493C1341.81 21.8211 1205.86 38.2292 1153 49.9493C1093.65 60.9738 945.238 76.4081 826.348 49.9493C707.458 23.4904 564.031 38.9248 507.179 49.9493C469.777 59.2697 368.64 72.3182 263.314 49.9493Z" fill="#FFF1B3"/>
<rect y="164.38" width="1728" height="82.6219" fill="#FFE466"/>
<path d="M263.314 88.4168C157.989 66.0478 43.8857 79.0963 0 88.4168V166.875H1728V88.4168C1689.93 100.137 1583.58 116.545 1462.69 88.4168C1341.81 60.2886 1205.86 76.6967 1153 88.4168C1093.65 99.4413 945.238 114.876 826.348 88.4168C707.458 61.9579 564.031 77.3922 507.179 88.4168C469.777 97.7372 368.64 110.786 263.314 88.4168Z" fill="#FFE466"/>
<rect y="204.898" width="1728" height="83.1023" fill="#FFD100"/>
<path d="M263.314 128.493C157.989 105.994 43.8857 119.118 0 128.493V207.408H1728V128.493C1689.93 140.281 1583.58 156.785 1462.69 128.493C1341.81 100.201 1205.86 116.705 1153 128.493C1093.65 139.582 945.238 155.106 826.348 128.493C707.458 101.88 564.031 117.404 507.179 128.493C469.777 137.868 368.64 150.992 263.314 128.493Z" fill="#FFD200"/>
</g>
</svg>
