<svg width="86" height="86" viewBox="0 0 86 86" fill="none" xmlns="http://www.w3.org/2000/svg">
<path d="M79.1814 10.0743C79.4077 9.86345 79.5893 9.60913 79.7152 9.32656C79.8411 9.04399 79.9088 8.73896 79.9142 8.42966C79.9197 8.12036 79.8628 7.81312 79.7469 7.52629C79.6311 7.23945 79.4586 6.97889 79.2399 6.76015C79.0211 6.54141 78.7606 6.36896 78.4737 6.2531C78.1869 6.13725 77.8797 6.08035 77.5704 6.08581C77.2611 6.09126 76.956 6.15897 76.6735 6.28487C76.3909 6.41077 76.1366 6.5923 75.9257 6.81862L50.5649 32.1763C46.582 28.994 41.5663 27.3908 36.476 27.6729C31.3858 27.9551 26.5779 30.1029 22.9712 33.7059L20.8427 35.7945L7.24548 44.1058C6.94811 44.2873 6.69579 44.5339 6.50752 44.8271C6.31925 45.1202 6.19992 45.4523 6.15853 45.7982C6.11713 46.1441 6.15475 46.495 6.26854 46.8243C6.38233 47.1536 6.56933 47.4528 6.81548 47.6993L38.2976 79.1815C38.544 79.4284 38.8432 79.616 39.1727 79.7304C39.5022 79.8448 39.8533 79.8829 40.1997 79.8418C40.546 79.8006 40.8785 79.6814 41.172 79.4931C41.4656 79.3048 41.7125 79.0522 41.8943 78.7546L50.2055 65.1573L52.2941 63.0258C55.8963 59.4192 58.0436 54.612 58.3257 49.5224C58.6079 44.4329 57.0051 39.4178 53.8237 35.4351L79.1814 10.0743ZM12.1444 46.5107L21.9208 40.5368L45.4633 64.0793L39.4893 73.8556L12.1444 46.5107ZM49.0261 59.7793L48.3596 60.4581L25.5389 37.6404L26.2054 36.9893L26.2208 36.9739C27.7149 35.4624 29.4931 34.2612 31.453 33.4393C33.413 32.6175 35.5161 32.1912 37.6414 32.185C39.7667 32.1788 41.8723 32.5927 43.8371 33.4031C45.8018 34.2135 47.587 35.4043 49.0899 36.907C50.5928 38.4098 51.7839 40.1948 52.5945 42.1594C53.4052 44.1241 53.8194 46.2296 53.8135 48.3549C53.8076 50.4802 53.3816 52.5834 52.56 54.5435C51.7384 56.5035 50.5374 58.285 49.0261 59.7793Z" fill="#002A69"/>
</svg>
