<svg width="41" height="43" viewBox="0 0 41 43" fill="none" xmlns="http://www.w3.org/2000/svg">
<path d="M22.2562 3.5835C24.178 3.58887 25.1535 3.59962 25.9957 3.6247L26.3271 3.63725C26.7098 3.65158 27.0873 3.6695 27.5435 3.691C29.3611 3.78058 30.6014 4.08158 31.6896 4.52412C32.8171 4.9792 33.7669 5.59554 34.7167 6.58991C35.5854 7.48556 36.2576 8.56897 36.6865 9.76475C37.1084 10.906 37.3954 12.2068 37.4808 14.1149C37.5013 14.5915 37.5184 14.9875 37.5321 15.3906L37.5423 15.7382C37.568 16.6197 37.5782 17.6427 37.5816 19.6583L37.5833 20.9949V23.342C37.5875 24.6488 37.5744 25.9557 37.544 27.2622L37.5338 27.6097C37.5201 28.0129 37.503 28.4088 37.4825 28.8854C37.3971 30.7935 37.1067 32.0925 36.6865 33.2356C36.2588 34.432 35.5865 35.5157 34.7167 36.4104C33.8625 37.3212 32.8296 38.0261 31.6896 38.4762C30.6014 38.9187 29.3611 39.2197 27.5435 39.3093C27.1381 39.3293 26.7326 39.3473 26.3271 39.3631L25.9957 39.3738C25.1535 39.3989 24.178 39.4115 22.2562 39.415L20.9817 39.4168H18.7455C17.4989 39.4213 16.2523 39.4076 15.006 39.3756L14.6746 39.3649C14.269 39.3488 13.8636 39.3302 13.4582 39.3093C11.6406 39.2197 10.4003 38.9187 9.31041 38.4762C8.17039 38.0272 7.13779 37.3221 6.28496 36.4104C5.41549 35.5151 4.74272 34.4316 4.31354 33.2356C3.89158 32.0943 3.60458 30.7935 3.51917 28.8854C3.50013 28.4603 3.48305 28.0351 3.46792 27.6097L3.45937 27.2622C3.42789 25.9557 3.41366 24.6489 3.41667 23.342V19.6583C3.4119 18.3515 3.42443 17.0446 3.45425 15.7382L3.46621 15.3906C3.47987 14.9875 3.49696 14.5915 3.51746 14.1149C3.60287 12.2068 3.88987 10.9078 4.31183 9.76475C4.74082 8.56774 5.41494 7.484 6.28667 6.58991C7.13928 5.6788 8.1712 4.97381 9.31041 4.52412C10.4003 4.08158 11.6389 3.78058 13.4582 3.691C13.9127 3.6695 14.2919 3.65158 14.6746 3.63725L15.006 3.6265C16.2517 3.59466 17.4978 3.58093 18.7438 3.58529L22.2562 3.5835ZM20.5 12.5418C18.2346 12.5418 16.062 13.4857 14.4601 15.1657C12.8583 16.8457 11.9583 19.1243 11.9583 21.5002C11.9583 23.8761 12.8583 26.1546 14.4601 27.8347C16.062 29.5147 18.2346 30.4585 20.5 30.4585C22.7654 30.4585 24.938 29.5147 26.5399 27.8347C28.1417 26.1546 29.0417 23.8761 29.0417 21.5002C29.0417 19.1243 28.1417 16.8457 26.5399 15.1657C24.938 13.4857 22.7654 12.5418 20.5 12.5418ZM20.5 16.1252C21.173 16.125 21.8395 16.264 22.4613 16.534C23.0832 16.804 23.6482 17.1998 24.1242 17.6988C24.6001 18.1979 24.9777 18.7903 25.2354 19.4424C25.4931 20.0945 25.6257 20.7934 25.6259 21.4993C25.626 22.2051 25.4935 22.9041 25.2361 23.5563C24.9786 24.2084 24.6012 24.801 24.1254 25.3002C23.6496 25.7994 23.0846 26.1954 22.4629 26.4657C21.8411 26.7359 21.1747 26.875 20.5017 26.8752C19.1425 26.8752 17.8389 26.3089 16.8778 25.3009C15.9167 24.2929 15.3767 22.9257 15.3767 21.5002C15.3767 20.0746 15.9167 18.7075 16.8778 17.6995C17.8389 16.6915 19.1425 16.1252 20.5017 16.1252M29.4705 9.85433C28.9041 9.85433 28.361 10.0903 27.9605 10.5103C27.56 10.9303 27.335 11.4999 27.335 12.0939C27.335 12.6879 27.56 13.2575 27.9605 13.6775C28.361 14.0975 28.9041 14.3335 29.4705 14.3335C30.0368 14.3335 30.58 14.0975 30.9804 13.6775C31.3809 13.2575 31.6059 12.6879 31.6059 12.0939C31.6059 11.4999 31.3809 10.9303 30.9804 10.5103C30.58 10.0903 30.0368 9.85433 29.4705 9.85433Z" fill="white"/>
</svg>
