<svg width="23" height="40" viewBox="0 0 23 40" fill="none" xmlns="http://www.w3.org/2000/svg">
<path d="M22.0414 0.780373C21.7947 0.533006 21.5016 0.336747 21.1789 0.202838C20.8562 0.0689284 20.5102 0 20.1608 0C19.8114 0 19.4655 0.0689284 19.1428 0.202838C18.8201 0.336747 18.5269 0.533006 18.2802 0.780373L0.621444 18.4391C0.424449 18.6357 0.26816 18.8692 0.161525 19.1263C0.0548892 19.3834 0 19.6589 0 19.9372C0 20.2156 0.0548892 20.4911 0.161525 20.7482C0.26816 21.0053 0.424449 21.2388 0.621444 21.4354L18.2802 39.0941C19.3214 40.1354 21.0002 40.1354 22.0414 39.0941C23.0827 38.0529 23.0827 36.3741 22.0414 35.3329L6.65644 19.9266L22.0627 4.52037C23.0827 3.50037 23.0827 1.80037 22.0414 0.780373Z" fill="#002A69"/>
</svg>
