<svg width="33" height="36" viewBox="0 0 33 36" fill="none" xmlns="http://www.w3.org/2000/svg">
<g clip-path="url(#clip0_106_141)">
<path d="M0 2.5785C0 1.15425 1.08487 0 2.42344 0H30.5766C31.9151 0 33 1.15425 33 2.5785V33.4215C33 34.8457 31.9151 36 30.5766 36H2.42344C1.08487 36 0 34.8457 0 33.4215V2.5785ZM10.1949 30.1365V13.8802H5.24288V30.1365H10.1949ZM7.71994 11.6595C9.44625 11.6595 10.5208 10.413 10.5208 8.8515C10.4899 7.25625 9.44831 6.0435 7.75294 6.0435C6.05756 6.0435 4.95 7.2585 4.95 8.8515C4.95 10.413 6.02456 11.6595 7.68694 11.6595H7.71994ZM17.8427 30.1365V21.0578C17.8427 20.5718 17.8757 20.0857 18.0077 19.7393C18.3645 18.7695 19.1792 17.7638 20.5487 17.7638C22.341 17.7638 23.0567 19.2533 23.0567 21.4403V30.1365H28.0087V20.8125C28.0087 15.8175 25.5667 13.4955 22.308 13.4955C19.6804 13.4955 18.5027 15.0705 17.8427 16.1798V16.236H17.8097L17.8427 16.1798V13.8802H12.8927C12.9546 15.4058 12.8927 30.1365 12.8927 30.1365H17.8427Z" fill="white"/>
</g>
<defs>
<clipPath id="clip0_106_141">
<rect width="33" height="36" fill="white"/>
</clipPath>
</defs>
</svg>
