<svg width="24" height="31" viewBox="0 0 24 31" fill="none" xmlns="http://www.w3.org/2000/svg">
<path d="M10.6408 29.778C1.97927 17.275 0.371521 15.9918 0.371521 11.3967C0.371521 5.10246 5.49587 0 11.8171 0C18.1384 0 23.2627 5.10246 23.2627 11.3967C23.2627 15.9918 21.655 17.275 12.9934 29.778C12.425 30.5956 11.2092 30.5956 10.6408 29.778ZM11.8171 16.1453C14.451 16.1453 16.5861 14.0193 16.5861 11.3967C16.5861 8.77409 14.451 6.64808 11.8171 6.64808C9.18326 6.64808 7.04812 8.77409 7.04812 11.3967C7.04812 14.0193 9.18326 16.1453 11.8171 16.1453Z" fill="white"/>
</svg>
