<svg width="39" height="35" viewBox="0 0 39 35" fill="none" xmlns="http://www.w3.org/2000/svg">
<path d="M10.8631 29.9089C9.15207 29.9089 7.44101 28.4506 6.58548 27.8257C2.30783 24.9091 1.02454 23.8674 0.169006 23.2425V31.9922C0.169006 33.1425 1.1268 34.0755 2.30783 34.0755H19.4184C20.5995 34.0755 21.5573 33.1425 21.5573 31.9922V23.2425C20.7017 23.8674 19.4184 24.9091 15.1408 27.8257C14.2852 28.4506 12.5742 29.9089 10.8631 29.9089ZM19.4184 17.4093H2.30783C1.1268 17.4093 0.169006 18.3422 0.169006 19.4926V20.5342C1.88007 21.7842 1.66618 21.7842 7.86877 26.159C8.51042 26.5757 9.79372 27.8257 10.8631 27.8257C11.9325 27.8257 13.2158 26.5757 13.8575 26.3674C20.0601 21.9925 19.8462 21.9925 21.5573 20.7425V19.4926C21.5573 18.3422 20.5995 17.4093 19.4184 17.4093ZM36.529 11.1595H15.1408C13.9597 11.1595 13.002 12.0924 13.002 13.2428V15.326H19.4184C21.6381 15.326 23.4682 16.9809 23.6767 19.0902L23.6961 19.0759V27.8257H36.529C37.7101 27.8257 38.6679 26.8927 38.6679 25.7424V13.2428C38.6679 12.0924 37.7101 11.1595 36.529 11.1595ZM34.3902 19.4926H30.1126V15.326H34.3902V19.4926ZM10.8631 13.2428C10.8631 10.9453 12.7821 9.07624 15.1408 9.07624H30.1126V2.82643C30.1126 1.67608 29.1548 0.743164 27.9737 0.743164H6.58548C5.40445 0.743164 4.44666 1.67608 4.44666 2.82643V15.326H10.8631V13.2428Z" fill="white"/>
</svg>
