<svg width="97" height="97" viewBox="0 0 97 97" fill="none" xmlns="http://www.w3.org/2000/svg">
<path d="M16.1667 40.4167C16.1667 25.1756 16.1667 17.553 20.9035 12.8202C25.6363 8.08337 33.2589 8.08337 48.5 8.08337C63.7411 8.08337 71.3637 8.08337 76.0965 12.8202C80.8333 17.553 80.8333 25.1756 80.8333 40.4167V52.5417C80.8333 67.7828 80.8333 75.4054 76.0965 80.1382C71.3637 84.875 63.7411 84.875 48.5 84.875C33.2589 84.875 25.6363 84.875 20.9035 80.1382C16.1667 75.4054 16.1667 67.7828 16.1667 52.5417V40.4167Z" stroke="#002A69" stroke-width="6"/>
<path d="M68.7083 84.875V88.9167H64.6667V84.875M32.3333 84.875V88.9167H28.2917V84.875" stroke="#002A69" stroke-width="6" stroke-linejoin="round"/>
<path d="M80.8333 46.4792H16.1667" stroke="#002A69" stroke-width="6"/>
<path d="M68.7083 28.2917V36.3751M68.7083 56.5834V64.6667" stroke="#002A69" stroke-width="6" stroke-linecap="round"/>
</svg>

