<svg width="97" height="99" viewBox="0 0 99 99" fill="none" xmlns="http://www.w3.org/2000/svg">
<path d="M12.375 24.75H24.75M70.125 24.75H70.1663" stroke="#002A69" stroke-width="6" stroke-linecap="round" stroke-linejoin="round"/>
<path d="M78.375 8.25H20.625C16.0687 8.25 12.375 11.9437 12.375 16.5V82.5C12.375 87.0564 16.0687 90.75 20.625 90.75H78.375C82.9314 90.75 86.625 87.0564 86.625 82.5V16.5C86.625 11.9437 82.9314 8.25 78.375 8.25Z" stroke="#002A69" stroke-width="6" stroke-linecap="round" stroke-linejoin="round"/>
<path d="M49.5 74.25C60.8909 74.25 70.125 65.0159 70.125 53.625C70.125 42.2341 60.8909 33 49.5 33C38.1091 33 28.875 42.2341 28.875 53.625C28.875 65.0159 38.1091 74.25 49.5 74.25Z" stroke="#002A69" stroke-width="6" stroke-linecap="round" stroke-linejoin="round"/>
<path d="M49.5 74.25C52.235 74.25 54.8581 73.1635 56.792 71.2295C58.726 69.2956 59.8125 66.6725 59.8125 63.9375C59.8125 61.2025 58.726 58.5794 56.792 56.6455C54.8581 54.7115 52.235 53.625 49.5 53.625C46.765 53.625 44.1419 52.5385 42.208 50.6045C40.274 48.6706 39.1875 46.0475 39.1875 43.3125C39.1875 40.5775 40.274 37.9544 42.208 36.0205C44.1419 34.0865 46.765 33 49.5 33" stroke="#002A69" stroke-width="6" stroke-linecap="round" stroke-linejoin="round"/>
</svg>


